<?xml version="1.0" standalone="no"?><!DOCTYPE svg PUBLIC "-//W3C//DTD SVG 1.1//EN" "http://www.w3.org/Graphics/SVG/1.1/DTD/svg11.dtd"><svg t="1592556874526" class="icon" viewBox="0 0 1024 1024" version="1.1" xmlns="http://www.w3.org/2000/svg" p-id="3161" xmlns:xlink="http://www.w3.org/1999/xlink" width="128" height="128"><defs><style type="text/css"></style></defs><path d="M288 512c0 136.587 57.31 263.889 156.142 354.287 13.04 11.927 13.943 32.169 2.015 45.21-11.928 13.04-32.169 13.943-45.21 2.015C288.994 811.113 224 666.74 224 512c0-159.058 128.942-288 288-288s288 128.942 288 288c0 17.673-14.327 32-32 32-17.673 0-32-14.327-32-32 0-123.712-100.288-224-224-224S288 388.288 288 512z m128 0c0 151.645 96.777 284.805 237.956 333.124 16.72 5.723 25.636 23.917 19.913 40.638-5.722 16.72-23.917 25.636-40.638 19.914C466.36 848.563 352 691.21 352 512c0-88.366 71.634-160 160-160s160 71.634 160 160c0 53.02 42.98 96 96 96s96-42.98 96-96c0-194.404-157.596-352-352-352S160 317.596 160 512c0 109.223 28.811 214.161 82.706 306.36 8.919 15.258 3.78 34.857-11.477 43.776-15.258 8.919-34.857 3.78-43.775-11.478C127.869 748.724 96 632.652 96 512 96 282.25 282.25 96 512 96s416 186.25 416 416c0 88.366-71.634 160-160 160s-160-71.634-160-160c0-53.02-42.98-96-96-96s-96 42.98-96 96z m64 0c0-17.673 14.327-32 32-32 17.673 0 32 14.327 32 32 0 123.712 100.288 224 224 224 29.047 0 57.274-5.515 83.595-16.11 16.395-6.6 35.035 1.34 41.635 17.736 6.6 16.394-1.34 35.035-17.736 41.634C841.608 792.901 805.271 800 768 800c-159.058 0-288-128.942-288-288z" p-id="3162"></path></svg>