<?xml version="1.0" standalone="no"?><!DOCTYPE svg PUBLIC "-//W3C//DTD SVG 1.1//EN" "http://www.w3.org/Graphics/SVG/1.1/DTD/svg11.dtd"><svg t="1575871154860" class="icon" viewBox="0 0 1024 1024" version="1.1" xmlns="http://www.w3.org/2000/svg" p-id="4573" xmlns:xlink="http://www.w3.org/1999/xlink" width="200" height="200"><defs><style type="text/css"></style></defs><path d="M929.295093 873.474968 119.673029 873.474968 63.904067 873.474968 63.904067 817.603677l0-586.341561c0-15.451584 12.484061-27.935645 27.935645-27.935645 15.451584 0 27.935645 12.484061 27.935645 27.935645l0 586.341561 809.622065 0c15.451584 0 27.935645 12.484061 27.935645 27.935645C957.230738 860.990906 944.746677 873.474968 929.295093 873.474968L929.295093 873.474968zM845.590487 761.732387l-55.87129 0c-30.800839 0-55.87129-24.968122-55.87129-55.87129L733.847906 370.940342c0-30.800839 24.968122-55.87129 55.87129-55.87129l55.87129 0c30.800839 0 55.87129 24.968122 55.87129 55.87129l0 335.023084C901.461777 736.764265 876.391326 761.732387 845.590487 761.732387L845.590487 761.732387zM566.438693 761.732387l-55.87129 0c-30.800839 0-55.87129-24.968122-55.87129-55.87129L454.696113 203.4288c0-30.800839 24.968122-55.87129 55.87129-55.87129l55.87129 0c30.800839 0 55.87129 24.968122 55.87129 55.87129l0 502.534626C622.207655 736.764265 597.239532 761.732387 566.438693 761.732387L566.438693 761.732387zM287.184571 761.732387l-55.87129 0c-30.800839 0-55.87129-24.968122-55.87129-55.87129L175.441991 482.580594c0-30.800839 24.968122-55.87129 55.87129-55.87129l55.87129 0c30.800839 0 55.87129 24.968122 55.87129 55.87129l0 223.382832C343.055861 736.764265 318.087739 761.732387 287.184571 761.732387L287.184571 761.732387z" p-id="4574"></path></svg>