<?xml version="1.0" standalone="no"?><!DOCTYPE svg PUBLIC "-//W3C//DTD SVG 1.1//EN" "http://www.w3.org/Graphics/SVG/1.1/DTD/svg11.dtd"><svg t="1575821463789" class="icon" viewBox="0 0 1024 1024" version="1.1" xmlns="http://www.w3.org/2000/svg" p-id="4083" width="300" height="300" xmlns:xlink="http://www.w3.org/1999/xlink"><defs><style type="text/css"></style></defs><path d="M585.398 819.21c0-69.451 56.48-126.011 126.011-126.011 11.119 0 22.479 1.612 33.839 4.754l26.105 7.252V243.703H228.071v97.248c0 36.579 6.849 72.352 20.223 106.432l5.64 14.421c17.001 43.186 25.622 88.628 25.622 135.035v121.257c0 102.243 83.149 185.391 185.391 185.391v-0.003h147.36l-14.261-29.569c-8.378-17.401-12.648-35.771-12.648-54.705z m-120.369 43.027c-79.523 0-144.22-64.698-144.22-144.22V596.76c0-51.564-9.588-102.082-28.522-150.102l-5.64-14.342c-11.523-29.248-17.323-59.944-17.323-91.366v-56.077h460.94v368.203c-6.285-0.724-12.569-1.128-18.773-1.128-92.252 0-167.263 75.01-167.261 167.264 0 14.583 1.934 29.005 5.721 43.024h-84.922z" p-id="4084"></path><path d="M711.41 713.907c-58.091 0-105.305 47.214-105.305 105.305 0 58.091 47.214 105.305 105.305 105.305 58.091 0 105.305-47.214 105.305-105.305 0-58.091-47.214-105.305-105.305-105.305z m0 169.438c-35.37 0-64.134-28.763-64.134-64.134s28.763-64.134 64.134-64.134 64.134 28.763 64.134 64.134-28.763 64.134-64.134 64.134zM420.957 140.734H578.55c11.361 0 20.546-9.185 20.546-20.625s-9.264-20.625-20.625-20.625H420.957c-11.442 0-20.625 9.185-20.625 20.625s9.264 20.625 20.625 20.625zM792.138 174.251c0-11.44-9.264-20.625-20.625-20.625H227.911c-11.359 0-20.625 9.105-20.625 20.546 0 11.44 9.266 20.625 20.627 20.625h543.681a20.478 20.478 0 0 0 20.544-20.546z" p-id="4085"></path></svg>
