<?xml version="1.0" standalone="no"?><!DOCTYPE svg PUBLIC "-//W3C//DTD SVG 1.1//EN" "http://www.w3.org/Graphics/SVG/1.1/DTD/svg11.dtd"><svg t="1592557010612" class="icon" viewBox="0 0 1024 1024" version="1.1" xmlns="http://www.w3.org/2000/svg" p-id="4000" xmlns:xlink="http://www.w3.org/1999/xlink" width="128" height="128"><defs><style type="text/css"></style></defs><path d="M273.9 842a60 60 0 1 0 120 0 60 60 0 1 0-120 0zM733.9 842a60 60 0 1 0 120 0 60 60 0 1 0-120 0zM807.4 732H321.2c-17.8 0-34.8-6.7-47.8-18.8s-20.8-28.6-22.1-46.4L215.9 152h-72c-16.6 0-30-13.4-30-30s13.4-30 30-30h100c15.8 0 28.8 12.2 29.9 27.9l7.7 112.1H840c19.6 0 38.5 8.3 51.7 22.8 13.2 14.5 19.8 34 18 53.5l-32.7 360c-1.6 17.4-9.6 33.5-22.5 45.4-12.9 11.8-29.6 18.3-47.1 18.3zM285.7 292l25.6 370.7c0.1 1.8 0.8 4.4 3.2 6.6 2.4 2.2 5 2.7 6.8 2.7h486.1c1.8 0 4.4-0.5 6.7-2.6 2.4-2.2 3.1-4.7 3.2-6.5l32.7-360c0.1-1.6 0-4.8-2.6-7.6s-5.7-3.3-7.4-3.3H285.7z" p-id="4001"></path></svg>