<?xml version="1.0" standalone="no"?><!DOCTYPE svg PUBLIC "-//W3C//DTD SVG 1.1//EN" "http://www.w3.org/Graphics/SVG/1.1/DTD/svg11.dtd"><svg t="1575871377349" class="icon" viewBox="0 0 1024 1024" version="1.1" xmlns="http://www.w3.org/2000/svg" p-id="4721" xmlns:xlink="http://www.w3.org/1999/xlink" width="200" height="200"><defs><style type="text/css"></style></defs><path d="M268.917 573.15c-53.241-0.026-96.423 43.112-96.449 96.353v0.098c-0.028 53.241 43.11 96.422 96.351 96.449 53.24 0.026 96.423-43.112 96.449-96.353v-0.098c0.028-53.24-43.11-96.422-96.351-96.449z m64.095 96.513c-0.017 35.425-28.75 64.13-64.175 64.112-35.426-0.016-64.13-28.75-64.112-64.175v-0.064c0.017-35.425 28.75-64.13 64.175-64.112s64.13 28.75 64.112 64.175v0.064zM530.381 272.878c0-8.294-7.571-14.929-16.835-14.929h-398.78c-9.352 0-16.835 6.713-16.835 14.929v263.508h432.45V272.878zM418.878 403.652c4.142 7.024 4.142 15.67 0.09 22.694-4.052 6.933-11.617 11.256-19.722 11.166H372.86l-28.634-49.619 49.168-28.367a28641.342 28641.342 0 0 0 25.484 44.126z m-167.77-109.144c3.602-5.854 9.816-9.996 17.2-9.996h70.781c-10.356 0-19.452 5.404-24.674 14.318-6.753 11.617-43.766 75.824-43.766 75.823L221.3 346.197c0.001 0.001 23.594-41.513 29.808-51.689z m-31.429 197.846l-35.39-61.326c-3.692-6.393-3.423-13.958 0.09-19.902l14.319-24.764-18.371-10.537H237.6l28.637 49.619-18.371-10.716-28.097 48.628c-5.223 8.917-5.313 19.994-0.09 28.998z m75.465 8.645h-50.969c-8.015 0.09-15.58-4.233-19.632-11.257-4.052-7.024-3.963-15.758 0-22.603 0 0 6.574-11.347 13.238-22.873h57.364v56.733z m10.987-176.323c6.664-11.526 13.238-22.873 13.238-22.873 3.963-7.024 11.437-11.437 19.541-11.437s15.58 4.323 19.632 11.347a6694.62 6694.62 0 0 1 10.085 17.47l18.371-10.626-28.637 49.619h-57.274l18.371-10.356-13.327-23.144z m82.127 165.696c-3.692 6.393-10.446 9.996-17.29 9.906h-28.546v21.253l-28.637-49.619 28.637-49.619-0.09 21.253 56.102-0.09c10.356 0.09 19.993-5.404 25.214-14.408l-35.39 61.324z" p-id="4722"></path><path d="M926.069 532.62c0-27.411-22.368-49.597-50.003-49.597H826.71V324.789c0-17.784-14.51-32.086-32.348-32.086H546.66c-0.093 0-0.093 0-0.093 0.091v260.121H97.93v69.227h72.447c17.617-36.228 54.772-61.202 97.765-61.202 42.994 0 80.147 24.974 97.766 61.202h248.439c19.788-39.753 59.15-66.93 104.563-66.93 48.986 0 80.134 27.174 101.392 65.253-0.01 0.01 0.218 0.625 0.587 1.678H926.07l-0.001-89.523z m-286.612-49.063h-65.531v-16.545h65.531v16.545z m149.175-37.247H573.926V328.101h200.749c7.765 0 13.957 6.284 13.957 13.957V446.31z" p-id="4723"></path><path d="M717.877 573.15c-53.241-0.026-96.423 43.112-96.449 96.353v0.098c-0.028 53.241 43.11 96.422 96.351 96.449 53.24 0.026 96.423-43.112 96.449-96.353v-0.098c0.028-53.24-43.11-96.422-96.351-96.449z m64.094 96.513c-0.016 35.425-28.749 64.128-64.175 64.112-35.426-0.016-64.13-28.75-64.112-64.175v-0.064c0.017-35.425 28.749-64.13 64.175-64.112 35.425 0.018 64.13 28.75 64.112 64.175v0.064z" p-id="4724"></path></svg>