<?xml version="1.0" standalone="no"?><!DOCTYPE svg PUBLIC "-//W3C//DTD SVG 1.1//EN" "http://www.w3.org/Graphics/SVG/1.1/DTD/svg11.dtd"><svg t="1588678338160" class="icon" viewBox="0 0 1024 1024" version="1.1" xmlns="http://www.w3.org/2000/svg" p-id="16135" width="500" height="500" xmlns:xlink="http://www.w3.org/1999/xlink"><defs><style type="text/css"></style></defs><path d="M512 0C332.07 0 182 144.94 182 330c0 70.404 21.156 133.184 61.758 192.012l242.988 379.16c11.788 18.432 38.744 18.396 50.508 0l244.042-380.45C821.024 464.56 842 398.614 842 330 842 148.038 693.962 0 512 0z m0 480c-82.706 0-150-67.294-150-150s67.294-150 150-150 150 67.294 150 150-67.294 150-150 150z" p-id="16136" data-spm-anchor-id="a313x.7781069.0.i24" class="selected"></path><path d="M746.528 689.39l-151.062 236.174c-39.102 60.964-128.048 60.764-166.962 0.058l-151.308-236.17C144.068 720.232 62 776.618 62 844c0 116.924 231.856 180 450 180s450-63.076 450-180c0-67.43-82.182-123.846-215.472-154.61z" p-id="16137"></path></svg>