<?xml version="1.0" standalone="no"?><!DOCTYPE svg PUBLIC "-//W3C//DTD SVG 1.1//EN" "http://www.w3.org/Graphics/SVG/1.1/DTD/svg11.dtd"><svg t="1592556273909" class="icon" viewBox="0 0 1024 1024" version="1.1" xmlns="http://www.w3.org/2000/svg" p-id="2255" width="128" height="128" xmlns:xlink="http://www.w3.org/1999/xlink"><defs><style type="text/css"></style></defs><path d="M622.9 517.9c77.6-40 129.3-119.9 129.3-214C752.3 172.2 646.5 64 512.4 64c-131.7 0-239.9 108.2-239.9 239.9 0 91.7 51.7 171.7 129.3 214C263.1 562.6 162 694.3 162 849.5v7.1c0 11.8 4.7 23.5 11.8 32.9 7.1 7.1 28.2 23.5 80 40 65.8 18.8 159.9 30.6 279.9 30.6h9.4c82.3 0 155.2-11.8 218.7-32.9 49.4-16.5 75.3-35.3 77.6-37.6 11.8-9.4 21.2-23.5 21.2-40 2.2-155.3-98.9-284.7-237.7-331.7z" p-id="2256"></path></svg>