<?xml version="1.0" standalone="no"?><!DOCTYPE svg PUBLIC "-//W3C//DTD SVG 1.1//EN" "http://www.w3.org/Graphics/SVG/1.1/DTD/svg11.dtd"><svg t="1588678487661" class="icon" viewBox="0 0 1024 1024" version="1.1" xmlns="http://www.w3.org/2000/svg" p-id="17075" xmlns:xlink="http://www.w3.org/1999/xlink" width="500" height="500"><defs><style type="text/css"></style></defs><path d="M629.637519 1010.298689a29.616975 29.616975 0 0 0 3.044735-1.383971 30.032167 30.032167 0 0 0 5.674281-2.629544 27.679416 27.679416 0 0 0 4.7055-3.459927 38.88958 38.88958 0 0 0 4.013516-4.29031 27.679416 27.679416 0 0 0 3.044736-5.120692 22.973915 22.973915 0 0 0 2.075956-5.397486 32.384917 32.384917 0 0 0 0.968779-6.227869 23.804298 23.804298 0 0 0 0-3.32153v-5.120692A121.927828 121.927828 0 0 1 841.523449 871.901608c0.830382 0 1.937559 0 3.044736 1.245574a26.572239 26.572239 0 0 0 5.812677 2.214353 27.679416 27.679416 0 0 0 5.674281 1.107177 27.679416 27.679416 0 0 0 5.951074 0 39.304771 39.304771 0 0 0 5.812677-1.245574 26.572239 26.572239 0 0 0 5.397487-3.32153 30.308961 30.308961 0 0 0 5.120692-3.459927 33.630491 33.630491 0 0 0 2.767941-1.937559 510.408434 510.408434 0 0 0 121.235843-207.595621 36.813623 36.813623 0 0 0 0-3.875118 47.331802 47.331802 0 0 0 0-6.227869 26.849034 26.849034 0 0 0-0.96878-5.812677 24.496283 24.496283 0 0 0-1.660765-5.67428 38.335991 38.335991 0 0 0-3.044735-5.120692 41.519124 41.519124 0 0 0-3.736722-4.567104 28.648196 28.648196 0 0 0-5.120692-3.736721c-1.107177-0.691985-1.799162-1.799162-3.044735-2.352751a121.789431 121.789431 0 0 1 0-220.466549c1.245574-0.691985 1.937559-1.660765 3.183132-2.352751a46.778213 46.778213 0 0 0 4.982295-3.736721 41.519124 41.519124 0 0 0 3.736722-4.567103 38.335991 38.335991 0 0 0 3.044735-5.120692 49.407758 49.407758 0 0 0 2.629545-11.486958 47.331802 47.331802 0 0 0 0-6.227869 36.813623 36.813623 0 0 0 0-3.875118 512.069199 512.069199 0 0 0-119.990269-205.796459c-0.830382-0.96878-1.937559-1.245574-2.767942-2.075956a27.679416 27.679416 0 0 0-5.259089-3.598324 23.25071 23.25071 0 0 0-5.397486-2.214354 37.505609 37.505609 0 0 0-5.67428-1.245573 21.451548 21.451548 0 0 0-5.951075 0 27.679416 27.679416 0 0 0-5.812677 0.968779 30.032167 30.032167 0 0 0-5.812677 2.352751c-1.107177 0-2.214353 0.691985-3.183133 1.245573a120.820651 120.820651 0 0 1-67.537776 21.036357 121.789431 121.789431 0 0 1-121.789431-121.789431v-6.919854-3.459927a43.041492 43.041492 0 0 0-0.830382-6.089472 24.357886 24.357886 0 0 0-2.214353-5.535883 37.505609 37.505609 0 0 0-2.906339-5.120692 24.496283 24.496283 0 0 0-4.151913-4.29031 29.063387 29.063387 0 0 0-4.567103-3.598324 27.679416 27.679416 0 0 0-5.812678-2.629544A22.143533 22.143533 0 0 0 629.637519 13.839708a513.314772 513.314772 0 0 0-235.275038 0 33.768888 33.768888 0 0 0-3.32153 1.383971 30.032167 30.032167 0 0 0-5.67428 2.629544 38.474388 38.474388 0 0 0-4.705501 3.598325 29.893769 29.893769 0 0 0-4.013515 4.290309 37.505609 37.505609 0 0 0-2.906339 5.120692 19.790783 19.790783 0 0 0-2.075956 5.397486 32.384917 32.384917 0 0 0-0.968779 6.227869v10.379781a121.927828 121.927828 0 0 1-121.927828 121.789431 120.959049 120.959049 0 0 1-67.399379-20.344371c-0.96878 0-2.075956-0.691985-3.183133-1.245574a30.032167 30.032167 0 0 0-5.812677-2.35275 27.679416 27.679416 0 0 0-5.812677-0.96878 21.451548 21.451548 0 0 0-5.951075 0 41.519124 41.519124 0 0 0-5.67428 1.245574 27.679416 27.679416 0 0 0-5.535883 2.214353 31.27774 31.27774 0 0 0-5.120692 3.598324c-0.830382 0.830382-1.937559 1.107177-2.767942 2.075957A512.069199 512.069199 0 0 0 21.659143 364.399513v3.875119a49.546155 49.546155 0 0 0 0 6.227868 29.616975 29.616975 0 0 0 0.96878 5.951075 25.60346 25.60346 0 0 0 1.660765 5.535883 38.335991 38.335991 0 0 0 3.044735 5.120692 41.519124 41.519124 0 0 0 3.736722 4.567104 46.778213 46.778213 0 0 0 4.982295 3.736721c1.107177 0.691985 1.937559 1.660765 3.183132 2.35275a121.789431 121.789431 0 0 1 70.028923 110.717665 121.789431 121.789431 0 0 1-70.028923 110.717664 27.679416 27.679416 0 0 0-3.183132 2.352751 33.492094 33.492094 0 0 0-4.982295 3.736721 41.519124 41.519124 0 0 0-3.736722 4.567104 38.335991 38.335991 0 0 0-3.044735 5.120692 25.60346 25.60346 0 0 0-1.660765 5.535883 29.616975 29.616975 0 0 0-0.96878 5.951074 45.255845 45.255845 0 0 0 0 6.089472 39.443168 39.443168 0 0 0 0 4.013515 512.069199 512.069199 0 0 0 121.235843 207.595621c0.830382 0.830382 1.799162 1.107177 2.767941 1.937559a33.907285 33.907285 0 0 0 5.120692 1.799162 36.813623 36.813623 0 0 0 5.397487 2.214354 39.304771 39.304771 0 0 0 5.812677 1.245573 27.679416 27.679416 0 0 0 5.812677 0 30.032167 30.032167 0 0 0 5.951075-1.107176 28.371402 28.371402 0 0 0 5.67428-2.214354c0.96878 0 2.214353 0 3.044736-1.245573a121.927828 121.927828 0 0 1 188.358427 102.690634v5.120692a23.804298 23.804298 0 0 0 0 3.321529 32.384917 32.384917 0 0 0 0.968779 6.227869 19.790783 19.790783 0 0 0 2.075956 5.397486 27.679416 27.679416 0 0 0 3.044736 5.120692 38.88958 38.88958 0 0 0 4.013516 4.29031 27.679416 27.679416 0 0 0 4.7055 3.459927 30.032167 30.032167 0 0 0 5.674281 2.629544A29.616975 29.616975 0 0 0 394.362481 1010.298689a513.314772 513.314772 0 0 0 235.275038 0zM311.324233 507.917286a207.595621 207.595621 0 1 1 207.595621 207.595621 207.595621 207.595621 0 0 1-207.595621-207.595621z" p-id="17076"></path></svg>